<svg width="60" height="60" viewBox="0 0 60 60" fill="none" xmlns="http://www.w3.org/2000/svg">
<path d="M8.72646 47.9997H60V0H8.58495C6.31033 0.00646009 4.13096 0.80749 2.52255 2.22824C0.914145 3.64899 0.00731335 5.57409 0 7.58333V51.7809H0.00155683C0.00155683 51.7998 0 51.8184 0 51.8376C0 56.2625 3.93142 60 8.58495 60H60V55.9996H8.58495C6.46189 55.9996 4.5283 54.0158 4.5283 51.8372C4.5283 49.7572 6.45071 47.9997 8.72646 47.9997ZM45.283 4.0416V25.6435L38.434 20.3322L31.6981 25.6123V4.0416H45.283ZM27.1698 3.99997V30.9998H31.6473L38.4504 25.6675L45.3262 30.9998H49.8113V3.99997H55.4717V43.9997H13.5962L13.5849 3.99997H27.1698ZM8.58495 3.99997H9.0566L9.06736 43.9997H8.7259C7.25347 44 5.8066 44.3396 4.5283 44.9851V7.61458C4.52484 6.6604 4.94999 5.74396 5.7105 5.06633C6.47101 4.3887 7.50475 4.0052 8.58495 3.99997V3.99997Z" fill="#FDB805"/>
</svg>
