<svg width="60" height="60" viewBox="0 0 60 60" fill="none" xmlns="http://www.w3.org/2000/svg">
<path d="M29 2.49997C26.72 2.49997 25.196 4.22292 24.3512 5.73871C23.4848 7.3025 23 9.20986 23 10.7105C23 11.9585 23.1512 13.6764 24.0368 15.1214C25.0208 16.7231 26.6912 17.6579 29 17.6579C31.3088 17.6579 32.9792 16.7231 33.9632 15.1214C34.8512 13.6764 35 11.9585 35 10.7105C35 9.20986 34.5152 7.29997 33.6488 5.73871C32.8064 4.22292 31.28 2.49997 29 2.49997ZM26.6 10.7105C26.6 9.92734 26.8904 8.67681 27.4592 7.65365C28.0544 6.5825 28.628 6.28944 29 6.28944C29.372 6.28944 29.9456 6.5825 30.5408 7.65365C31.1096 8.67681 31.4 9.92734 31.4 10.7105C31.4 11.7463 31.2512 12.5547 30.9368 13.065C30.7208 13.4187 30.2888 13.8684 29 13.8684C27.7088 13.8684 27.2792 13.4187 27.0632 13.065C26.7512 12.5547 26.6 11.7463 26.6 10.7105Z" fill="#FDB805"/>
<path d="M49.4 25.8684V46.7105H51.2C51.6774 46.7105 52.1352 46.9101 52.4728 47.2654C52.8104 47.6207 53 48.1027 53 48.6052C53 49.1077 52.8104 49.5897 52.4728 49.945C52.1352 50.3003 51.6774 50.4999 51.2 50.4999H6.8C6.32261 50.4999 5.86477 50.3003 5.52721 49.945C5.18964 49.5897 5 49.1077 5 48.6052C5 48.1027 5.18964 47.6207 5.52721 47.2654C5.86477 46.9101 6.32261 46.7105 6.8 46.7105H8.6V25.8684C8.6 24.3608 9.16893 22.915 10.1816 21.849C11.1943 20.783 12.5678 20.1841 14 20.1841H44C45.4322 20.1841 46.8057 20.783 47.8184 21.849C48.8311 22.915 49.4 24.3608 49.4 25.8684ZM12.2 25.8684V31.1509L18.0728 35.1425C18.5578 35.472 19.1228 35.6473 19.7 35.6473C20.2772 35.6473 20.8422 35.472 21.3272 35.1425L25.52 32.2928C26.5537 31.5911 27.7531 31.2075 28.9829 31.1852C30.2127 31.1629 31.4239 31.5028 32.48 32.1665L37.3016 35.1955C37.7988 35.5081 38.3714 35.6625 38.9501 35.6401C39.5289 35.6177 40.0891 35.4194 40.5632 35.0692L45.8 31.1989V25.8684C45.8 25.3658 45.6104 24.8839 45.2728 24.5286C44.9352 24.1732 44.4774 23.9736 44 23.9736H14C13.5226 23.9736 13.0648 24.1732 12.7272 24.5286C12.3896 24.8839 12.2 25.3658 12.2 25.8684ZM42.632 38.1715C41.589 38.9421 40.3564 39.3783 39.083 39.4277C37.8097 39.477 36.55 39.1372 35.456 38.4494L30.6368 35.4178C30.1565 35.1158 29.6055 34.9612 29.0461 34.9715C28.4867 34.9818 27.9412 35.1565 27.4712 35.4759L23.2784 38.3256C22.2118 39.0501 20.9694 39.4354 19.7 39.4354C18.4306 39.4354 17.1882 39.0501 16.1216 38.3256L12.2 35.6604V46.7105H45.8V35.8296L42.632 38.169V38.1715Z" fill="#FDB805"/>
</svg>
