<svg width="77" height="61" viewBox="0 0 77 61" fill="none" xmlns="http://www.w3.org/2000/svg">
<path d="M76.78 29.1775L68.53 9.9275C68.3195 9.43044 67.9673 9.00633 67.5174 8.70804C67.0675 8.40974 66.5398 8.25044 66 8.25H57.75V2.75C57.75 2.02065 57.4603 1.32118 56.9445 0.805457C56.4288 0.289732 55.7293 0 55 0H2.75C2.02065 0 1.32118 0.289732 0.805456 0.805457C0.289731 1.32118 0 2.02065 0 2.75V49.5C0 50.2293 0.289731 50.9288 0.805456 51.4445C1.32118 51.9603 2.02065 52.25 2.75 52.25H8.635C9.26828 54.5803 10.6508 56.6374 12.5691 58.104C14.4875 59.5706 16.8352 60.3653 19.25 60.3653C21.6648 60.3653 24.0125 59.5706 25.9309 58.104C27.8492 56.6374 29.2317 54.5803 29.865 52.25H47.135C47.7683 54.5803 49.1508 56.6374 51.0691 58.104C52.9875 59.5706 55.3352 60.3653 57.75 60.3653C60.1648 60.3653 62.5125 59.5706 64.4309 58.104C66.3492 56.6374 67.7317 54.5803 68.365 52.25H74.25C74.9793 52.25 75.6788 51.9603 76.1945 51.4445C76.7103 50.9288 77 50.2293 77 49.5V30.25C76.9993 29.8814 76.9245 29.5166 76.78 29.1775ZM57.75 13.75H64.185L70.07 27.5H57.75V13.75ZM19.25 55C18.1622 55 17.0988 54.6774 16.1944 54.0731C15.2899 53.4687 14.5849 52.6098 14.1687 51.6048C13.7524 50.5998 13.6435 49.4939 13.8557 48.427C14.0679 47.3601 14.5917 46.3801 15.3609 45.6109C16.1301 44.8417 17.1101 44.3179 18.177 44.1057C19.2439 43.8935 20.3498 44.0024 21.3548 44.4187C22.3598 44.8349 23.2187 45.5399 23.8231 46.4444C24.4274 47.3488 24.75 48.4122 24.75 49.5C24.75 50.9587 24.1705 52.3576 23.1391 53.3891C22.1076 54.4205 20.7087 55 19.25 55ZM47.135 46.75H29.865C29.2317 44.4197 27.8492 42.3626 25.9309 40.896C24.0125 39.4294 21.6648 38.6347 19.25 38.6347C16.8352 38.6347 14.4875 39.4294 12.5691 40.896C10.6508 42.3626 9.26828 44.4197 8.635 46.75H5.5V5.5H52.25V40.04C50.9978 40.7668 49.9013 41.7336 49.0236 42.8851C48.1458 44.0365 47.504 45.35 47.135 46.75ZM57.75 55C56.6622 55 55.5988 54.6774 54.6944 54.0731C53.7899 53.4687 53.0849 52.6098 52.6687 51.6048C52.2524 50.5998 52.1435 49.4939 52.3557 48.427C52.5679 47.3601 53.0917 46.3801 53.8609 45.6109C54.6301 44.8417 55.6101 44.3179 56.677 44.1057C57.7439 43.8935 58.8498 44.0024 59.8548 44.4187C60.8598 44.8349 61.7187 45.5399 62.3231 46.4444C62.9274 47.3488 63.25 48.4122 63.25 49.5C63.25 50.9587 62.6705 52.3576 61.6391 53.3891C60.6076 54.4205 59.2087 55 57.75 55ZM71.5 46.75H68.365C67.7569 44.3947 66.3852 42.3074 64.4645 40.8146C62.5438 39.3219 60.1825 38.5079 57.75 38.5V33H71.5V46.75Z" fill="#FDB805"/>
</svg>
