<svg width="60" height="60" viewBox="0 0 60 60" fill="none" xmlns="http://www.w3.org/2000/svg">
<g clip-path="url(#clip0)">
<path d="M10.1353 21.2109H3.24463V24.7266H10.1353V21.2109Z" fill="#FDB805"/>
<path d="M10.1353 35.2734H3.24463V38.7891H10.1353V35.2734Z" fill="#FDB805"/>
<path d="M10.1355 28.2422H0V31.7578H10.1355V28.2422Z" fill="#FDB805"/>
<path d="M36.8258 6.82559C24.0474 6.82559 13.6514 17.2216 13.6514 30C13.6514 42.7784 24.0473 53.1744 36.8258 53.1744C49.6043 53.1744 60.0003 42.7784 60.0003 30C60.0003 17.2216 49.6043 6.82559 36.8258 6.82559ZM36.8258 49.6588C25.9859 49.6588 17.167 40.8399 17.167 30C17.167 19.1602 25.9859 10.3412 36.8258 10.3412C47.6657 10.3412 56.4847 19.1602 56.4847 30C56.4847 40.8399 47.6657 49.6588 36.8258 49.6588Z" fill="#FDB805"/>
<path d="M37.9604 30.8735V19.5184H34.4448V32.732L43.5044 38.9058L45.4842 36.0006L37.9604 30.8735Z" fill="#FDB805"/>
</g>
<defs>
<clipPath id="clip0">
<rect width="60" height="60" fill="white"/>
</clipPath>
</defs>
</svg>
