<svg width="20" height="21" viewBox="0 0 20 21" fill="none" xmlns="http://www.w3.org/2000/svg">
<path d="M1.81818 0.25C0.823636 0.25 0 1.07364 0 2.06818L0 18.4318C0 19.4264 0.823636 20.25 1.81818 20.25H18.1818C19.1764 20.25 20 19.4264 20 18.4318V2.06818C20 1.07364 19.1764 0.25 18.1818 0.25L1.81818 0.25ZM1.81818 2.06818H18.1818V18.4318H13.4655V12.2955H15.8236L16.1645 9.56818H13.4664V7.80636C13.4664 7.01182 13.6609 6.47182 14.8009 6.47182H16.2782V4C16.0264 3.96818 15.1527 3.91455 14.1482 3.91455C12.0527 3.91455 10.6255 5.17545 10.6255 7.52273V9.56818H8.23909V12.2955H10.6245V18.4318H1.81818L1.81818 2.06818Z" fill="black"/>
</svg>
