<svg width="32" height="32" viewBox="0 0 32 32" fill="none" xmlns="http://www.w3.org/2000/svg">
<path d="M2.90909 0C1.31782 0 0 1.31782 0 2.90909L0 29.0909C0 30.6822 1.31782 32 2.90909 32H29.0909C30.6822 32 32 30.6822 32 29.0909V2.90909C32 1.31782 30.6822 0 29.0909 0L2.90909 0ZM2.90909 2.90909H29.0909V29.0909H21.5447V19.2727H25.3178L25.8633 14.9091H21.5462V12.0902C21.5462 10.8189 21.8575 9.95491 23.6815 9.95491H26.0451V6C25.6422 5.94909 24.2444 5.86327 22.6371 5.86327C19.2844 5.86327 17.0007 7.88073 17.0007 11.6364V14.9091H13.1825V19.2727H16.9993V29.0909H2.90909L2.90909 2.90909Z" fill="black"/>
</svg>
