<svg width="60" height="60" viewBox="0 0 60 60" fill="none" xmlns="http://www.w3.org/2000/svg">
<path d="M48.6429 39H55.5V42H48.6429V48H45.2143V42H38.3571V39H45.2143V33H48.6429V39ZM41.7857 24H21.2143V21H41.7857V24ZM21.2143 33V30H34.9286V33H21.2143ZM10.9286 9V45H34.9286V48H7.5V6H21.2143C21.2143 5.17188 21.3929 4.39844 21.75 3.67969C22.1071 2.96094 22.5982 2.32031 23.2232 1.75781C23.8482 1.19531 24.5714 0.765625 25.3929 0.46875C26.2143 0.171875 27.1071 0.015625 28.0714 0C29.0179 0 29.9018 0.15625 30.7232 0.46875C31.5446 0.78125 32.2768 1.21094 32.9196 1.75781C33.5625 2.30469 34.0536 2.9375 34.3929 3.65625C34.7321 4.375 34.9107 5.15625 34.9286 6H48.6429V30H45.2143V9H41.7857V15H14.3571V9H10.9286ZM17.7857 9V12H38.3571V9H31.5V6C31.5 5.375 31.3125 4.82812 30.9375 4.35938C30.5625 3.89062 30.0536 3.51562 29.4107 3.23438C29 3.07813 28.5536 3 28.0714 3C27.5893 3 27.1429 3.07813 26.7321 3.23438C26.0893 3.5 25.5804 3.86719 25.2054 4.33594C24.8304 4.80469 24.6429 5.35937 24.6429 6V9H17.7857ZM21.2143 42V39H34.9286V42H21.2143ZM17.7857 21V24H14.3571V21H17.7857ZM14.3571 42V39H17.7857V42H14.3571ZM17.7857 30V33H14.3571V30H17.7857Z" fill="#FDB805"/>
</svg>
