<svg width="50" height="48" viewBox="0 0 50 48" fill="none" xmlns="http://www.w3.org/2000/svg">
<path d="M43.75 39H50V42H43.75V48H40.625V42H34.375V39H40.625V33H43.75V39ZM37.5 24H18.75V21H37.5V24ZM18.75 33V30H31.25V33H18.75ZM9.375 9V45H31.25V48H6.25V6H18.75C18.75 5.17188 18.9128 4.39844 19.2383 3.67969C19.5638 2.96094 20.0114 2.32031 20.5811 1.75781C21.1507 1.19531 21.8099 0.765625 22.5586 0.46875C23.3073 0.171875 24.1211 0.015625 25 0C25.8626 0 26.6683 0.15625 27.417 0.46875C28.1657 0.78125 28.833 1.21094 29.4189 1.75781C30.0049 2.30469 30.4525 2.9375 30.7617 3.65625C31.071 4.375 31.2337 5.15625 31.25 6H43.75V30H40.625V9H37.5V15H12.5V9H9.375ZM15.625 9V12H34.375V9H28.125V6C28.125 5.375 27.9541 4.82812 27.6123 4.35938C27.2705 3.89062 26.8066 3.51562 26.2207 3.23438C25.8464 3.07812 25.4395 3 25 3C24.5605 3 24.1536 3.07812 23.7793 3.23438C23.1934 3.5 22.7295 3.86719 22.3877 4.33594C22.0459 4.80469 21.875 5.35938 21.875 6V9H15.625ZM18.75 42V39H31.25V42H18.75ZM15.625 21V24H12.5V21H15.625ZM12.5 42V39H15.625V42H12.5ZM15.625 30V33H12.5V30H15.625Z" fill="#FDB805"/>
</svg>
