<svg width="32" height="33" viewBox="0 0 32 33" fill="none" xmlns="http://www.w3.org/2000/svg">
<path fill-rule="evenodd" clip-rule="evenodd" d="M16.0003 8.97729C14.0714 8.97729 12.2216 9.74353 10.8577 11.1074C9.49377 12.4713 8.72754 14.3212 8.72754 16.25C8.72754 18.1789 9.49377 20.0287 10.8577 21.3926C12.2216 22.7565 14.0714 23.5228 16.0003 23.5228C17.9291 23.5228 19.779 22.7565 21.1429 21.3926C22.5068 20.0287 23.273 18.1789 23.273 16.25C23.273 14.3212 22.5068 12.4713 21.1429 11.1074C19.779 9.74353 17.9291 8.97729 16.0003 8.97729V8.97729ZM11.6366 16.25C11.6366 17.4073 12.0964 18.5172 12.9147 19.3356C13.7331 20.1539 14.843 20.6137 16.0003 20.6137C17.1576 20.6137 18.2675 20.1539 19.0859 19.3356C19.9042 18.5172 20.3639 17.4073 20.3639 16.25C20.3639 15.0927 19.9042 13.9828 19.0859 13.1645C18.2675 12.3461 17.1576 11.8864 16.0003 11.8864C14.843 11.8864 13.7331 12.3461 12.9147 13.1645C12.0964 13.9828 11.6366 15.0927 11.6366 16.25Z" fill="black"/>
<path d="M24.7271 6.06799C24.3413 6.06799 23.9713 6.22124 23.6985 6.49402C23.4257 6.7668 23.2725 7.13677 23.2725 7.52254C23.2725 7.90831 23.4257 8.27828 23.6985 8.55106C23.9713 8.82384 24.3413 8.97708 24.7271 8.97708C25.1128 8.97708 25.4828 8.82384 25.7556 8.55106C26.0284 8.27828 26.1816 7.90831 26.1816 7.52254C26.1816 7.13677 26.0284 6.7668 25.7556 6.49402C25.4828 6.22124 25.1128 6.06799 24.7271 6.06799Z" fill="black"/>
<path fill-rule="evenodd" clip-rule="evenodd" d="M5.81818 0.25C4.2751 0.25 2.79523 0.862985 1.70411 1.95411C0.612985 3.04523 0 4.5251 0 6.06818V26.4318C0 27.9749 0.612985 29.4548 1.70411 30.5459C2.79523 31.637 4.2751 32.25 5.81818 32.25H26.1818C27.7249 32.25 29.2048 31.637 30.2959 30.5459C31.387 29.4548 32 27.9749 32 26.4318V6.06818C32 4.5251 31.387 3.04523 30.2959 1.95411C29.2048 0.862985 27.7249 0.25 26.1818 0.25H5.81818ZM26.1818 3.15909H5.81818C5.04664 3.15909 4.3067 3.46558 3.76114 4.01114C3.21558 4.5567 2.90909 5.29664 2.90909 6.06818V26.4318C2.90909 27.2034 3.21558 27.9433 3.76114 28.4889C4.3067 29.0344 5.04664 29.3409 5.81818 29.3409H26.1818C26.9534 29.3409 27.6933 29.0344 28.2389 28.4889C28.7844 27.9433 29.0909 27.2034 29.0909 26.4318V6.06818C29.0909 5.29664 28.7844 4.5567 28.2389 4.01114C27.6933 3.46558 26.9534 3.15909 26.1818 3.15909Z" fill="black"/>
</svg>
