<svg width="20" height="21" viewBox="0 0 20 21" fill="none" xmlns="http://www.w3.org/2000/svg">
<path fill-rule="evenodd" clip-rule="evenodd" d="M10.0001 5.70459C8.79453 5.70459 7.63837 6.18348 6.78593 7.03592C5.93349 7.88836 5.45459 9.04452 5.45459 10.25C5.45459 11.4556 5.93349 12.6117 6.78593 13.4642C7.63837 14.3166 8.79453 14.7955 10.0001 14.7955C11.2056 14.7955 12.3618 14.3166 13.2142 13.4642C14.0666 12.6117 14.5455 11.4556 14.5455 10.25C14.5455 9.04452 14.0666 7.88836 13.2142 7.03592C12.3618 6.18348 11.2056 5.70459 10.0001 5.70459ZM7.27278 10.25C7.27278 10.9734 7.56012 11.6671 8.07158 12.1785C8.58305 12.69 9.27674 12.9773 10.0001 12.9773C10.7234 12.9773 11.4171 12.69 11.9285 12.1785C12.44 11.6671 12.7273 10.9734 12.7273 10.25C12.7273 9.52673 12.44 8.83303 11.9285 8.32157C11.4171 7.81011 10.7234 7.52277 10.0001 7.52277C9.27674 7.52277 8.58305 7.81011 8.07158 8.32157C7.56012 8.83303 7.27278 9.52673 7.27278 10.25Z" fill="black"/>
<path d="M15.4545 3.88623C15.2134 3.88623 14.9822 3.98201 14.8117 4.1525C14.6412 4.32298 14.5454 4.55422 14.5454 4.79532C14.5454 5.03643 14.6412 5.26766 14.8117 5.43815C14.9822 5.60863 15.2134 5.70441 15.4545 5.70441C15.6956 5.70441 15.9269 5.60863 16.0974 5.43815C16.2679 5.26766 16.3636 5.03643 16.3636 4.79532C16.3636 4.55422 16.2679 4.32298 16.0974 4.1525C15.9269 3.98201 15.6956 3.88623 15.4545 3.88623Z" fill="black"/>
<path fill-rule="evenodd" clip-rule="evenodd" d="M3.63636 0.25C2.67194 0.25 1.74702 0.633116 1.06507 1.31507C0.383116 1.99702 0 2.92194 0 3.88636V16.6136C0 17.5781 0.383116 18.503 1.06507 19.1849C1.74702 19.8669 2.67194 20.25 3.63636 20.25H16.3636C17.3281 20.25 18.253 19.8669 18.9349 19.1849C19.6169 18.503 20 17.5781 20 16.6136V3.88636C20 2.92194 19.6169 1.99702 18.9349 1.31507C18.253 0.633116 17.3281 0.25 16.3636 0.25H3.63636ZM16.3636 2.06818H3.63636C3.15415 2.06818 2.69169 2.25974 2.35071 2.60071C2.00974 2.94169 1.81818 3.40415 1.81818 3.88636V16.6136C1.81818 17.0958 2.00974 17.5583 2.35071 17.8993C2.69169 18.2403 3.15415 18.4318 3.63636 18.4318H16.3636C16.8458 18.4318 17.3083 18.2403 17.6493 17.8993C17.9903 17.5583 18.1818 17.0958 18.1818 16.6136V3.88636C18.1818 3.40415 17.9903 2.94169 17.6493 2.60071C17.3083 2.25974 16.8458 2.06818 16.3636 2.06818Z" fill="black"/>
</svg>
