<svg width="37" height="37" viewBox="0 0 37 37" fill="none" xmlns="http://www.w3.org/2000/svg">
<path d="M18.5 0C23.5265 0 24.1536 0.0184999 26.1257 0.111C28.0959 0.2035 29.4372 0.51245 30.6175 0.97125C31.8385 1.44115 32.8671 2.07755 33.8957 3.1043C34.8364 4.02911 35.5643 5.14779 36.0288 6.3825C36.4857 7.56095 36.7965 8.90405 36.889 10.8743C36.976 12.8464 37 13.4735 37 18.5C37 23.5265 36.9815 24.1536 36.889 26.1257C36.7965 28.0959 36.4857 29.4372 36.0288 30.6175C35.5657 31.8529 34.8376 32.9718 33.8957 33.8957C32.9706 34.8361 31.852 35.5639 30.6175 36.0288C29.439 36.4857 28.0959 36.7965 26.1257 36.889C24.1536 36.976 23.5265 37 18.5 37C13.4735 37 12.8464 36.9815 10.8743 36.889C8.90405 36.7965 7.5628 36.4857 6.3825 36.0288C5.1473 35.5653 4.02843 34.8372 3.1043 33.8957C2.1634 32.971 1.43547 31.8523 0.97125 30.6175C0.51245 29.439 0.2035 28.0959 0.111 26.1257C0.0240499 24.1536 0 23.5265 0 18.5C0 13.4735 0.0184999 12.8464 0.111 10.8743C0.2035 8.9022 0.51245 7.5628 0.97125 6.3825C1.43419 5.14703 2.16229 4.02804 3.1043 3.1043C4.02869 2.16308 5.14749 1.4351 6.3825 0.97125C7.5628 0.51245 8.9022 0.2035 10.8743 0.111C12.8464 0.0240499 13.4735 0 18.5 0ZM18.5 9.25C16.0467 9.25 13.694 10.2246 11.9593 11.9593C10.2246 13.694 9.25 16.0467 9.25 18.5C9.25 20.9533 10.2246 23.306 11.9593 25.0407C13.694 26.7754 16.0467 27.75 18.5 27.75C20.9533 27.75 23.306 26.7754 25.0407 25.0407C26.7754 23.306 27.75 20.9533 27.75 18.5C27.75 16.0467 26.7754 13.694 25.0407 11.9593C23.306 10.2246 20.9533 9.25 18.5 9.25ZM30.525 8.7875C30.525 8.17419 30.2814 7.58599 29.8477 7.15232C29.414 6.71864 28.8258 6.475 28.2125 6.475C27.5992 6.475 27.011 6.71864 26.5773 7.15232C26.1436 7.58599 25.9 8.17419 25.9 8.7875C25.9 9.40081 26.1436 9.98901 26.5773 10.4227C27.011 10.8564 27.5992 11.1 28.2125 11.1C28.8258 11.1 29.414 10.8564 29.8477 10.4227C30.2814 9.98901 30.525 9.40081 30.525 8.7875ZM18.5 12.95C19.972 12.95 21.3836 13.5347 22.4244 14.5756C23.4653 15.6164 24.05 17.028 24.05 18.5C24.05 19.972 23.4653 21.3836 22.4244 22.4244C21.3836 23.4653 19.972 24.05 18.5 24.05C17.028 24.05 15.6164 23.4653 14.5756 22.4244C13.5347 21.3836 12.95 19.972 12.95 18.5C12.95 17.028 13.5347 15.6164 14.5756 14.5756C15.6164 13.5347 17.028 12.95 18.5 12.95Z" fill="#7C7566"/>
</svg>
