<svg width="60" height="60" viewBox="0 0 60 60" fill="none" xmlns="http://www.w3.org/2000/svg">
<path d="M47.4225 0.000530373C47.0271 0.0102706 46.6339 0.0630826 46.25 0.158029L5.625 10.8579C4.01922 11.2831 2.59816 12.2252 1.58144 13.5388C0.564721 14.8524 0.0089429 16.4643 0 18.1254V52.5001C0 56.6125 3.3875 60 7.5 60H52.5C56.6125 60 60 56.6125 60 52.5001V20.0004C60 15.8879 56.6125 12.5004 52.5 12.5004H19.0625L47.5 5.00049V10.0004H52.5V5.00049C52.5 2.18801 50.1075 -0.0394693 47.4225 0.000530373ZM7.5 17.5004H52.5C53.915 17.5004 55 18.5854 55 20.0004V52.5001C55 53.9151 53.915 55 52.5 55H7.5C6.085 55 5 53.9151 5 52.5001V20.0004C5 18.5854 6.085 17.5004 7.5 17.5004ZM46.25 32.5002C45.2554 32.5002 44.3016 32.8953 43.5984 33.5986C42.8951 34.3018 42.5 35.2557 42.5 36.2502C42.5 37.2448 42.8951 38.1986 43.5984 38.9018C44.3016 39.6051 45.2554 40.0002 46.25 40.0002C47.2446 40.0002 48.1984 39.6051 48.9016 38.9018C49.6049 38.1986 50 37.2448 50 36.2502C50 35.2557 49.6049 34.3018 48.9016 33.5986C48.1984 32.8953 47.2446 32.5002 46.25 32.5002Z" fill="#FDB805"/>
</svg>
