<svg width="28" height="48" viewBox="0 0 28 48" fill="none" xmlns="http://www.w3.org/2000/svg">
<path d="M23.2998 3.31034V7.59062L15.7998 14.2113V0H12.0498V14.2113L4.5498 7.59062V3.31034H0.799805V29.7931C0.805057 32.5765 1.94455 35.2653 4.01009 37.3682C6.07563 39.4712 8.92933 40.8479 12.0498 41.2469V48H15.7998V41.2469C18.9203 40.8479 21.774 39.4712 23.8395 37.3682C25.9051 35.2653 27.0446 32.5765 27.0498 29.7931V3.31034H23.2998ZM12.0498 37.9018C9.93386 37.518 8.03252 36.5019 6.66632 35.0248C5.30012 33.5477 4.55261 31.7 4.5498 29.7931V25.5128L12.0498 32.1335V37.9018ZM12.0498 27.4527L4.5498 20.832V12.2714L12.0498 18.8921V27.4527ZM15.7998 18.8921L23.2998 12.2714V20.832L15.7998 27.4527V18.8921ZM15.7998 37.9018V32.1335L23.2998 25.5128V29.7931C23.297 31.7 22.5495 33.5477 21.1833 35.0248C19.8171 36.5019 17.9158 37.518 15.7998 37.9018Z" fill="#FDB805"/>
</svg>
